<svg width="185" height="63" viewBox="0 0 185 63" fill="none" xmlns="http://www.w3.org/2000/svg">
<path d="M0.0520001 13.4H1.384V24.848H8.44V26H0.0520001V13.4ZM10.3816 16.532H11.6596V26H10.3816V16.532ZM11.0296 14.462C10.7656 14.462 10.5436 14.372 10.3636 14.192C10.1836 14.012 10.0936 13.796 10.0936 13.544C10.0936 13.304 10.1836 13.094 10.3636 12.914C10.5436 12.734 10.7656 12.644 11.0296 12.644C11.2936 12.644 11.5156 12.734 11.6956 12.914C11.8756 13.082 11.9656 13.286 11.9656 13.526C11.9656 13.79 11.8756 14.012 11.6956 14.192C11.5156 14.372 11.2936 14.462 11.0296 14.462ZM17.7536 26.09C16.9856 26.09 16.2476 25.982 15.5396 25.766C14.8436 25.538 14.2976 25.256 13.9016 24.92L14.4776 23.912C14.8736 24.224 15.3716 24.482 15.9716 24.686C16.5716 24.878 17.1956 24.974 17.8436 24.974C18.7076 24.974 19.3436 24.842 19.7516 24.578C20.1716 24.302 20.3816 23.918 20.3816 23.426C20.3816 23.078 20.2676 22.808 20.0396 22.616C19.8116 22.412 19.5236 22.262 19.1756 22.166C18.8276 22.058 18.3656 21.956 17.7896 21.86C17.0216 21.716 16.4036 21.572 15.9356 21.428C15.4676 21.272 15.0656 21.014 14.7296 20.654C14.4056 20.294 14.2436 19.796 14.2436 19.16C14.2436 18.368 14.5736 17.72 15.2336 17.216C15.8936 16.712 16.8116 16.46 17.9876 16.46C18.5996 16.46 19.2116 16.544 19.8236 16.712C20.4356 16.868 20.9396 17.078 21.3356 17.342L20.7776 18.368C19.9976 17.828 19.0676 17.558 17.9876 17.558C17.1716 17.558 16.5536 17.702 16.1336 17.99C15.7256 18.278 15.5216 18.656 15.5216 19.124C15.5216 19.484 15.6356 19.772 15.8636 19.988C16.1036 20.204 16.3976 20.366 16.7456 20.474C17.0936 20.57 17.5736 20.672 18.1856 20.78C18.9416 20.924 19.5476 21.068 20.0036 21.212C20.4596 21.356 20.8496 21.602 21.1736 21.95C21.4976 22.298 21.6596 22.778 21.6596 23.39C21.6596 24.218 21.3116 24.878 20.6156 25.37C19.9316 25.85 18.9776 26.09 17.7536 26.09ZM29.0082 25.424C28.7682 25.64 28.4682 25.808 28.1082 25.928C27.7602 26.036 27.3942 26.09 27.0102 26.09C26.1222 26.09 25.4382 25.85 24.9582 25.37C24.4782 24.89 24.2382 24.212 24.2382 23.336V17.612H22.5462V16.532H24.2382V14.462H25.5162V16.532H28.3962V17.612H25.5162V23.264C25.5162 23.828 25.6542 24.26 25.9302 24.56C26.2182 24.848 26.6262 24.992 27.1542 24.992C27.4182 24.992 27.6702 24.95 27.9102 24.866C28.1622 24.782 28.3782 24.662 28.5582 24.506L29.0082 25.424ZM34.6467 16.46C35.8827 16.46 36.8307 16.772 37.4907 17.396C38.1507 18.008 38.4807 18.92 38.4807 20.132V26H37.2567V24.524C36.9687 25.016 36.5427 25.4 35.9787 25.676C35.4267 25.952 34.7667 26.09 33.9987 26.09C32.9427 26.09 32.1027 25.838 31.4787 25.334C30.8547 24.83 30.5427 24.164 30.5427 23.336C30.5427 22.532 30.8307 21.884 31.4067 21.392C31.9947 20.9 32.9247 20.654 34.1967 20.654H37.2027V20.078C37.2027 19.262 36.9747 18.644 36.5187 18.224C36.0627 17.792 35.3967 17.576 34.5207 17.576C33.9207 17.576 33.3447 17.678 32.7927 17.882C32.2407 18.074 31.7667 18.344 31.3707 18.692L30.7947 17.738C31.2747 17.33 31.8507 17.018 32.5227 16.802C33.1947 16.574 33.9027 16.46 34.6467 16.46ZM34.1967 25.082C34.9167 25.082 35.5347 24.92 36.0507 24.596C36.5667 24.26 36.9507 23.78 37.2027 23.156V21.608H34.2327C32.6127 21.608 31.8027 22.172 31.8027 23.3C31.8027 23.852 32.0127 24.29 32.4327 24.614C32.8527 24.926 33.4407 25.082 34.1967 25.082ZM55.3029 12.644V26H54.0789V24.128C53.6949 24.764 53.1849 25.25 52.5489 25.586C51.9249 25.922 51.2169 26.09 50.4249 26.09C49.5369 26.09 48.7329 25.886 48.0129 25.478C47.2929 25.07 46.7289 24.5 46.3209 23.768C45.9129 23.036 45.7089 22.202 45.7089 21.266C45.7089 20.33 45.9129 19.496 46.3209 18.764C46.7289 18.032 47.2929 17.468 48.0129 17.072C48.7329 16.664 49.5369 16.46 50.4249 16.46C51.1929 16.46 51.8829 16.622 52.4949 16.946C53.1189 17.258 53.6289 17.72 54.0249 18.332V12.644H55.3029ZM50.5329 24.956C51.1929 24.956 51.7869 24.806 52.3149 24.506C52.8549 24.194 53.2749 23.756 53.5749 23.192C53.8869 22.628 54.0429 21.986 54.0429 21.266C54.0429 20.546 53.8869 19.904 53.5749 19.34C53.2749 18.776 52.8549 18.344 52.3149 18.044C51.7869 17.732 51.1929 17.576 50.5329 17.576C49.8609 17.576 49.2549 17.732 48.7149 18.044C48.1869 18.344 47.7669 18.776 47.4549 19.34C47.1549 19.904 47.0049 20.546 47.0049 21.266C47.0049 21.986 47.1549 22.628 47.4549 23.192C47.7669 23.756 48.1869 24.194 48.7149 24.506C49.2549 24.806 49.8609 24.956 50.5329 24.956ZM67.1061 21.662H59.1861C59.2581 22.646 59.6361 23.444 60.3201 24.056C61.0041 24.656 61.8681 24.956 62.9121 24.956C63.5001 24.956 64.0401 24.854 64.5321 24.65C65.0241 24.434 65.4501 24.122 65.8101 23.714L66.5301 24.542C66.1101 25.046 65.5821 25.43 64.9461 25.694C64.3221 25.958 63.6321 26.09 62.8761 26.09C61.9041 26.09 61.0401 25.886 60.2841 25.478C59.5401 25.058 58.9581 24.482 58.5381 23.75C58.1181 23.018 57.9081 22.19 57.9081 21.266C57.9081 20.342 58.1061 19.514 58.5021 18.782C58.9101 18.05 59.4621 17.48 60.1581 17.072C60.8661 16.664 61.6581 16.46 62.5341 16.46C63.4101 16.46 64.1961 16.664 64.8921 17.072C65.5881 17.48 66.1341 18.05 66.5301 18.782C66.9261 19.502 67.1241 20.33 67.1241 21.266L67.1061 21.662ZM62.5341 17.558C61.6221 17.558 60.8541 17.852 60.2301 18.44C59.6181 19.016 59.2701 19.772 59.1861 20.708H65.9001C65.8161 19.772 65.4621 19.016 64.8381 18.44C64.2261 17.852 63.4581 17.558 62.5341 17.558Z" fill="#969CB3"/>
<path d="M68.7525 43.302C68.7332 43.6154 68.6332 43.8616 68.4523 44.0405C68.2721 44.235 68.0337 44.3379 67.737 44.3492C67.5809 44.3552 67.4317 44.3374 67.2893 44.2959C67.0016 44.5414 66.6571 44.7344 66.256 44.8748C65.8548 45.0151 65.477 45.1546 65.1226 45.2932C64.6849 45.2943 64.254 45.2716 63.83 45.2252C63.4061 45.1788 62.9683 45.1799 62.5167 45.2284C62.3564 45.125 62.1898 45.061 62.0168 45.0363C61.8439 45.0117 61.6635 44.9951 61.4755 44.9866C61.3037 44.9932 61.1311 44.9763 60.9576 44.936C60.7996 44.8951 60.6393 44.7918 60.4767 44.626L59.3056 44.6706C59.1963 44.6748 59.0303 44.6264 58.8076 44.5254C58.601 44.4395 58.3629 44.3469 58.0933 44.2477C57.8393 44.1479 57.5622 44.0569 57.262 43.9745C56.9774 43.8915 56.7102 43.8548 56.4604 43.8643L56.3198 43.8697C56.1427 43.7357 55.9356 43.6342 55.6984 43.565C55.4774 43.5109 55.2487 43.4571 55.0121 43.4035C54.7761 43.3656 54.5476 43.3196 54.3266 43.2655C54.1057 43.2114 53.915 43.1326 53.7547 43.0293C53.5944 42.9259 53.4107 42.8235 53.2035 42.7219C52.9958 42.6048 52.7829 42.5581 52.5649 42.5821C52.2617 42.4216 51.9438 42.2852 51.6112 42.1728C51.2941 42.0598 50.9696 41.9549 50.6375 41.8581L49.6639 41.5434C49.3469 41.4304 49.0289 41.294 48.7101 41.1341C48.6639 41.1515 48.6092 41.1536 48.5462 41.1404C48.4831 41.1271 48.4282 41.1214 48.3813 41.1232C48.2877 41.1268 48.2342 41.1601 48.221 41.2231C48.1075 41.118 47.979 41.0291 47.8355 40.9564C47.7076 40.8831 47.5792 40.7941 47.4501 40.6896C47.3882 40.7076 47.3264 40.7256 47.2645 40.7436C47.2177 40.7454 47.1552 40.7477 47.0771 40.7507C46.9366 40.7561 46.7955 40.7458 46.6538 40.72C46.5277 40.6935 46.4013 40.6592 46.2746 40.6171C46.146 40.9348 46.0657 41.2896 46.0337 41.6818C46.0018 42.0739 45.9782 42.4813 45.963 42.9041C45.9629 43.3106 45.955 43.7175 45.9392 44.1246C45.924 44.5474 45.8684 44.9326 45.7722 45.2803C45.8081 45.404 45.8285 45.5283 45.8333 45.6532L45.8485 46.0514C45.8586 46.3168 45.9056 46.5261 45.9897 46.6793C45.9638 46.821 45.9376 46.9549 45.9112 47.081C45.9003 47.2065 45.8816 47.3323 45.8552 47.4584C45.8773 47.6295 45.8911 47.7854 45.8965 47.9259C45.918 48.0814 45.9321 48.2451 45.9386 48.4168L45.9538 48.815C45.9592 48.9555 45.9489 49.0966 45.923 49.2383C45.7705 49.338 45.6176 49.4298 45.4644 49.5138C45.3119 49.6135 45.1599 49.7287 45.0085 49.8596C44.8915 49.6608 44.6997 49.5508 44.433 49.5297C44.3736 49.6101 44.3306 49.7134 44.3041 49.8395C44.2939 49.9806 44.2263 50.0536 44.1014 50.0583C43.8762 49.8949 43.6913 49.7612 43.5466 49.6573C43.4019 49.5534 43.2396 49.3954 43.0595 49.1833C43.0427 49.1527 43.0334 49.1139 43.0316 49.0671C43.0286 48.989 43.0416 48.9182 43.0704 48.8545C43.0993 48.7909 43.1125 48.7278 43.1101 48.6654C43.103 48.478 43.0733 48.315 43.0211 48.1762C42.9821 47.9744 42.951 47.7724 42.9276 47.57C42.9049 47.3832 42.8899 47.1961 42.8828 47.0088C42.8727 46.7433 42.8785 46.4851 42.9002 46.2341C42.9375 45.9825 43.0057 45.7219 43.1049 45.4523C43.2594 44.993 43.3583 44.5123 43.4018 44.0103C43.4608 43.5077 43.4964 43.0059 43.5086 42.5051C43.5201 41.9887 43.5161 41.4728 43.4965 40.9576C43.4925 40.4417 43.5049 39.9487 43.5339 39.4785C43.4151 39.2329 43.2749 39.0427 43.1135 38.9082C42.967 38.7574 42.8875 38.5181 42.875 38.1902C42.8637 37.8935 42.9487 37.6635 43.1302 37.5003C43.311 37.3214 43.4672 37.1121 43.5988 36.8726C43.564 36.7801 43.585 36.7167 43.6619 36.6825L43.8492 34.2127C43.8583 34.0403 43.8745 33.8521 43.898 33.6479C43.9371 33.4431 43.9612 33.2546 43.9703 33.0822C43.9878 32.7219 43.9901 32.37 43.977 32.0265C43.9639 31.683 43.9664 31.3389 43.9845 30.9943C44.0334 30.2262 44.0748 29.4663 44.1087 28.7144C44.1582 27.962 44.1687 27.2111 44.1401 26.4616C44.1264 26.1025 44.0971 25.744 44.0522 25.386C44.0229 25.0275 43.9624 24.6702 43.8706 24.3141C43.6082 24.4022 43.3148 24.4994 42.9905 24.6056C42.6812 24.6956 42.4211 24.8462 42.2102 25.0575L42.0229 25.0647C41.6169 25.0801 41.2374 25.1728 40.8842 25.3426C40.5466 25.5118 40.201 25.6736 39.8472 25.8278C39.6941 25.9118 39.54 25.9724 39.3851 26.0096C39.2295 26.0311 39.0668 26.0686 38.8968 26.122C38.8193 26.1406 38.7352 26.1907 38.6445 26.2724C38.5538 26.354 38.47 26.4119 38.3932 26.4461L37.9986 26.555C37.8905 26.5904 37.8463 26.6624 37.8661 26.7711C37.8859 26.8798 37.8495 26.9516 37.757 26.9864C37.6819 27.0674 37.5741 27.1106 37.4336 27.116C37.2925 27.1057 37.1829 27.1021 37.1048 27.105L37.0111 27.1086C36.6315 27.4045 36.266 27.6608 35.9146 27.8775C35.5471 28.0791 35.1146 28.2207 34.6174 28.3022L34.1146 28.6497C33.947 28.7656 33.754 28.8277 33.5354 28.836C33.3636 28.8426 33.2219 28.8167 33.1102 28.7584C32.9782 28.5758 32.8765 28.3686 32.8051 28.1368C32.7181 27.9055 32.5854 27.7073 32.4071 27.5421C32.4822 27.4611 32.533 27.3575 32.5595 27.2314C32.5697 27.0903 32.5884 26.9645 32.6154 26.854C33.0761 26.6332 33.5449 26.4198 34.0218 26.214C34.483 26.0088 34.9272 25.7651 35.3543 25.483C35.4017 25.4969 35.4723 25.502 35.566 25.4984C35.7221 25.4925 35.8617 25.4637 35.9848 25.4121C36.108 25.3605 36.2308 25.3011 36.3533 25.2339C36.4759 25.1667 36.5987 25.1072 36.7218 25.0556C36.8449 25.004 36.9927 24.9828 37.165 24.9918C37.6846 24.6749 38.2374 24.4115 38.8236 24.2015C39.4098 23.9915 39.9621 23.7125 40.4804 23.3644C40.5585 23.3614 40.6215 23.3746 40.6696 23.4041C40.7332 23.4329 40.7963 23.4462 40.8587 23.4438C40.9212 23.4414 40.9599 23.4321 40.9749 23.4159C41.0639 23.2874 41.1855 23.1968 41.3398 23.144C41.4936 23.0756 41.6479 23.0228 41.8029 22.9856C41.9729 22.9322 42.1269 22.8716 42.2651 22.8038C42.4182 22.7198 42.5152 22.5988 42.5561 22.4409C42.6366 22.5004 42.7549 22.5271 42.911 22.5212C43.1764 22.5111 43.4164 22.4472 43.6308 22.3296C43.8608 22.2113 44.1086 22.1472 44.374 22.1371C44.4365 22.1347 44.4917 22.1482 44.5397 22.1776C44.6028 22.1909 44.6655 22.1963 44.728 22.1939C44.8529 22.1892 44.9139 22.1477 44.9109 22.0697C44.9235 21.991 44.9677 21.919 45.0434 21.8535C45.9893 21.6455 46.9279 21.4533 47.8594 21.2771C48.8065 21.1003 49.764 20.9934 50.7321 20.9565C50.869 20.8575 51.0234 20.8047 51.1951 20.7981C51.3669 20.7916 51.5248 20.8325 51.6689 20.9208C51.9331 20.8795 52.1977 20.8459 52.4625 20.8202C52.7274 20.7945 52.9925 20.7765 53.2579 20.7664C53.8669 20.7432 54.4929 20.7584 55.136 20.8121C55.7792 20.8658 56.4163 20.9666 57.0474 21.1145C57.6935 21.2463 58.3108 21.4416 58.8992 21.7007C59.487 21.9441 60.0379 22.2436 60.5518 22.5993C60.604 22.738 60.6718 22.8762 60.7552 23.0137C60.8386 23.1513 60.9443 23.2567 61.0722 23.33C61.0734 23.3612 61.0665 23.385 61.0514 23.4012C61.052 23.4168 61.0529 23.4402 61.0541 23.4714C61.0607 23.6432 61.1138 23.8053 61.2134 23.9579C61.3286 24.1099 61.3904 24.2952 61.3988 24.5137C61.4071 24.7323 61.3764 24.9524 61.3067 25.174C61.2525 25.395 61.2374 25.6144 61.2614 25.8324C61.0992 26.0888 60.9595 26.3209 60.8423 26.5286C60.7407 26.7357 60.6803 26.996 60.661 27.3095C60.3906 27.6013 60.1527 27.9231 59.9472 28.2749C59.7411 28.6111 59.5272 28.9476 59.3055 29.2844C59.0988 29.605 58.86 29.9034 58.5891 30.1796C58.3182 30.4557 57.9905 30.6793 57.6061 30.8503C57.5965 31.007 57.5405 31.1812 57.4384 31.3727L56.9466 31.3914C56.9045 31.5181 56.83 31.6148 56.7231 31.6814L56.4023 31.8813C56.2954 31.9479 56.2047 32.0295 56.1302 32.1262C56.0713 32.2223 56.0452 32.3562 56.0517 32.5279C56.0199 32.5135 55.9805 32.5072 55.9337 32.509C55.7776 32.5149 55.5932 32.6001 55.3805 32.7646C55.1835 32.9285 55.0243 33.0596 54.903 33.1581C54.6447 33.3555 54.378 33.5377 54.1029 33.7046C53.8434 33.8708 53.6176 34.0983 53.4253 34.3871C52.8109 34.6764 52.2295 35.0112 51.681 35.3918C51.132 35.7567 50.5335 36.0532 49.8855 36.2811C49.6458 36.5561 49.3572 36.7782 49.0196 36.9474C48.6971 37.1004 48.383 37.2688 48.0772 37.4524L48.0799 37.5227C48.0847 37.6476 48.1363 37.7707 48.2347 37.8921C48.3326 37.9978 48.4457 38.0951 48.5742 38.184C48.7021 38.2573 48.8369 38.3069 48.9786 38.3328C49.1359 38.3581 49.2687 38.353 49.3768 38.3176C49.6997 38.5868 50.0675 38.7995 50.48 38.9557C50.8925 39.112 51.32 39.2521 51.7626 39.3759C52.2051 39.4998 52.6401 39.6318 53.0676 39.7718C53.4952 39.9119 53.8929 40.0922 54.261 40.3127L54.8231 40.2913C55.1941 40.5899 55.6246 40.808 56.1146 40.9457C56.6202 41.0828 57.1017 41.2052 57.5593 41.3128C57.7532 41.4774 57.9925 41.6012 58.2771 41.6842C58.5767 41.7509 58.8592 41.7793 59.1247 41.7691L59.2652 41.7638C59.3277 41.7614 59.382 41.7515 59.4282 41.7341L59.43 41.781C59.433 41.859 59.4585 41.9128 59.5065 41.9422C59.554 41.956 59.6014 41.9699 59.6489 41.9837C59.7113 41.9813 59.7665 41.9949 59.8146 42.0243C59.8776 42.0375 59.9257 42.067 59.9587 42.1126L60.1929 42.1037C60.5208 42.0912 60.8357 42.1496 61.1377 42.2788C61.4392 42.3924 61.7538 42.4429 62.0817 42.4304C62.2222 42.4251 62.3309 42.4053 62.4078 42.3711C62.5027 42.3987 62.5753 42.4585 62.6257 42.5504C62.6761 42.6423 62.7416 42.718 62.822 42.7775C62.9307 42.7577 63.0316 42.7382 63.1247 42.719C63.2184 42.7155 63.3121 42.7119 63.4057 42.7083C63.7492 42.6952 64.0708 42.7221 64.3704 42.7888C64.6701 42.8556 64.979 42.9611 65.2972 43.1053C65.7885 42.8677 66.2735 42.6694 66.7522 42.5104C67.2309 42.3514 67.7434 42.2615 68.2899 42.2407L68.2917 42.2875C68.2988 42.4749 68.3522 42.6449 68.4519 42.7974C68.5677 42.965 68.6679 43.1332 68.7525 43.302ZM59.0701 24.9543C59.063 24.767 59.0183 24.6201 58.936 24.5138C58.8694 24.4069 58.78 24.3165 58.6677 24.2426C58.5548 24.1531 58.4345 24.0716 58.3066 23.9983C58.1943 23.9244 58.0889 23.8268 57.9905 23.7055C57.5798 23.596 57.1763 23.4707 56.78 23.3294C56.3837 23.1882 55.9805 23.0706 55.5704 22.9768C55.3656 22.9377 55.1611 22.9064 54.957 22.8829C54.7522 22.8438 54.5483 22.8281 54.3454 22.8359L53.8301 22.8555C53.7358 22.8435 53.6337 22.8317 53.5239 22.8203C53.429 22.7926 53.3344 22.7728 53.2401 22.7607C53.0203 22.7378 52.8009 22.7228 52.5817 22.7155C52.3781 22.7076 52.167 22.7078 51.9484 22.7162C51.5425 22.7316 51.1371 22.7627 50.7324 22.8094L49.5181 22.9495C49.3469 22.9717 49.1676 22.9863 48.9803 22.9935C48.7929 23.0006 48.6218 23.0228 48.4668 23.06C48.3893 23.0785 48.2815 23.1217 48.1434 23.1896C48.0047 23.2418 47.8584 23.3021 47.7046 23.3705C47.5503 23.4233 47.3962 23.4839 47.2425 23.5523C47.1043 23.6201 46.9812 23.6717 46.8731 23.7071C46.8929 23.8158 46.9049 23.9248 46.909 24.0341L46.9206 24.3385C46.9296 24.5727 46.9307 24.8072 46.924 25.042C46.9173 25.2768 46.895 25.5122 46.8571 25.7482C46.8451 25.8425 46.8252 25.9371 46.7976 26.0319C46.7699 26.1268 46.75 26.2214 46.738 26.3157C46.7121 26.4574 46.7025 26.6141 46.709 26.7859L46.726 27.2309C46.7084 27.5912 46.6984 27.9434 46.6959 28.2875C46.6934 28.6315 46.6833 28.9837 46.6658 29.3441C46.6114 30.3781 46.5489 31.4047 46.4783 32.4237C46.4233 33.4422 46.3998 34.4673 46.4079 35.499C46.919 35.37 47.4045 35.1873 47.8646 34.9509C48.3247 34.7145 48.7764 34.4627 49.2196 34.1956C49.6623 33.9129 50.1053 33.638 50.5486 33.371C50.9918 33.1039 51.46 32.8749 51.9531 32.6841C52.0715 32.5076 52.2144 32.3615 52.382 32.2456C52.5652 32.1292 52.716 31.9827 52.8344 31.8062C52.9905 31.8002 53.1064 31.7646 53.1821 31.6991C53.2572 31.6181 53.3566 31.5596 53.4803 31.5236C54.2048 30.8392 54.9463 30.1933 55.705 29.5859C56.4637 28.9784 57.1896 28.3331 57.8829 27.6499C57.937 27.429 58.0304 27.2143 58.1632 27.006C58.311 26.7814 58.451 26.5572 58.5832 26.3332C58.7154 26.1093 58.832 25.8859 58.9329 25.6632C59.0339 25.4404 59.0796 25.2041 59.0701 24.9543ZM75.6193 27.1615L75.6229 27.2552C75.5148 27.2906 75.4631 27.3707 75.4679 27.4956C75.2991 27.5803 75.1219 27.6496 74.9363 27.7035C74.7502 27.7419 74.5727 27.8034 74.4039 27.888C74.2316 27.879 74.0517 27.878 73.8643 27.8851C73.692 27.8761 73.52 27.8748 73.3482 27.8814C72.8798 27.8992 72.412 27.9327 71.9448 27.9818C71.4775 28.0308 71.0091 28.0487 70.5395 28.0353C70.3257 28.1686 70.0876 28.2793 69.8251 28.3675C69.5777 28.4394 69.3368 28.4799 69.1026 28.4888C68.9153 28.496 68.7504 28.4788 68.6081 28.4373C68.2405 28.639 67.8327 28.8109 67.3847 28.953C66.9523 29.0946 66.512 29.2365 66.064 29.3786C65.6154 29.5052 65.1833 29.6546 64.7676 29.8268C64.367 29.9828 64.0157 30.1994 63.7135 30.4768C63.6906 30.6966 63.6755 30.916 63.6682 31.1352C63.6604 31.3388 63.6603 31.5421 63.668 31.7451C63.6764 31.9637 63.6919 32.1663 63.7147 32.3531C63.753 32.5393 63.8148 32.7246 63.9 32.9089C63.9793 32.9372 64.0661 32.9573 64.1603 32.9694C64.2702 32.9808 64.3642 32.9851 64.4423 32.9821C64.5203 32.9791 64.5981 32.9683 64.6756 32.9497C64.7525 32.9155 64.805 32.8588 64.8333 32.7796C65.0663 32.7394 65.3002 32.7227 65.535 32.7293C65.7692 32.7204 66.0034 32.7115 66.2376 32.7026C66.4718 32.6936 66.6979 32.6772 66.9159 32.6533C67.1495 32.6287 67.3744 32.5811 67.5907 32.5103C67.8381 32.4383 68.0786 32.39 68.3122 32.3655C68.5614 32.3404 68.8029 32.3155 69.0365 32.291C69.2701 32.2664 69.5112 32.2338 69.7598 32.193C70.0079 32.1367 70.2622 32.041 70.5229 31.906C70.7288 31.9763 70.9333 32.0076 71.1363 31.9998C71.3549 31.9915 71.5663 31.9991 71.7704 32.0226C71.8827 32.0965 71.9718 32.1791 72.0379 32.2704C72.1195 32.3611 72.1627 32.4689 72.1675 32.5938C72.1758 32.8124 72.1061 33.034 71.9583 33.2585C71.8105 33.4831 71.6933 33.6908 71.6067 33.8817L71.3491 33.8915C70.9744 33.9058 70.6095 33.9745 70.2546 34.0974C69.9147 34.2042 69.5678 34.3347 69.2141 34.4889C68.8753 34.6269 68.5285 34.7574 68.1735 34.8804C67.8336 34.9872 67.4763 35.0477 67.1016 35.062C67.0391 35.0644 67.0016 35.1049 66.9889 35.1836C66.9913 35.246 66.9775 35.2935 66.9474 35.3259C66.8688 35.3132 66.7514 35.3099 66.5952 35.3158C66.2361 35.3295 65.8941 35.3817 65.5692 35.4722C65.2443 35.5628 64.9101 35.6146 64.5666 35.6277C64.4729 35.6313 64.3792 35.6349 64.2855 35.6384C64.1913 35.6264 64.097 35.6143 64.0027 35.6023C63.9294 35.7302 63.8312 35.8199 63.708 35.8715C63.5843 35.9075 63.4696 35.9744 63.3639 36.0723C63.3224 36.2146 63.2977 36.3875 63.2898 36.5911C63.2976 36.7941 63.2978 37.0052 63.2905 37.2244C63.2983 37.4273 63.2901 37.6231 63.266 37.8117C63.2419 38.0002 63.1851 38.1509 63.0956 38.2638C63.1142 38.3413 63.1778 38.3701 63.2865 38.3503C63.3946 38.3149 63.4511 38.3597 63.4558 38.4846C63.4612 38.6251 63.4512 38.774 63.426 38.9314C63.4007 39.0887 63.391 39.2454 63.397 39.4016C63.4083 39.6982 63.452 40.0249 63.5281 40.3817C63.6193 40.7222 63.7408 41.0381 63.8926 41.3294C64.0601 41.6201 64.2726 41.8622 64.5301 42.0556C64.7871 42.2335 65.1029 42.3153 65.4777 42.301C65.7275 42.2915 65.9599 42.2357 66.1749 42.1337C66.3899 42.0317 66.5636 41.8687 66.6957 41.6447L66.812 41.6168C66.8744 41.6145 66.9294 41.6202 66.9768 41.634C67.0398 41.6473 67.1026 41.6527 67.165 41.6503C67.2587 41.6467 67.3737 41.5876 67.5101 41.473C67.6615 41.3421 67.8201 41.1953 67.9859 41.0326C68.1673 40.8694 68.349 40.7139 68.531 40.5662C68.7124 40.403 68.8878 40.2868 69.0572 40.2178C69.1581 39.9951 69.2513 39.7726 69.3366 39.5504C69.4376 39.3277 69.5872 39.15 69.7854 39.0173L69.7595 38.3381C69.9091 38.1604 70.0671 37.998 70.2335 37.851C70.4155 37.7033 70.5492 37.5184 70.6345 37.2962C70.7138 37.3245 70.7849 37.3452 70.848 37.3585C70.9267 37.3711 71.005 37.3759 71.0831 37.373C71.1612 37.37 71.2389 37.3592 71.3164 37.3406C71.4095 37.3214 71.4945 37.2947 71.5714 37.2605C71.7028 37.4275 71.8039 37.6191 71.8747 37.8353C71.9605 38.0353 72.0616 38.2269 72.1781 38.4101C72.0483 38.6965 71.8971 39.0385 71.7246 39.436C71.5522 39.8334 71.3641 40.2315 71.1603 40.6302C70.9566 41.0289 70.7367 41.4125 70.5006 41.7812C70.2795 42.1336 70.0554 42.4079 69.8283 42.6042C69.7833 42.6529 69.6839 42.7114 69.5301 42.7798C69.3631 42.9112 69.2114 43.0343 69.0751 43.1489C68.9393 43.2792 68.812 43.4248 68.693 43.5857C68.2456 43.7435 67.8155 43.9475 67.4029 44.1978C67.0058 44.4475 66.6085 44.6893 66.2109 44.9234C66.0217 44.8837 65.8179 44.868 65.5993 44.8763C65.4119 44.8835 65.2249 44.8984 65.0381 44.9212C64.8519 44.9596 64.6495 44.9829 64.4309 44.9912C64.3655 44.9156 64.2697 44.8645 64.1436 44.838C64.0338 44.8266 63.9917 44.75 64.0176 44.6083C63.4856 44.5973 63.0505 44.4653 62.7125 44.2124C62.3751 43.9751 62.0822 43.6735 61.8337 43.3077C61.6008 42.9413 61.4058 42.5422 61.2486 42.1104C61.0914 41.6785 60.927 41.2626 60.7554 40.8626L60.7527 40.7924C60.7497 40.7143 60.7792 40.6663 60.841 40.6483C60.9029 40.6303 60.9323 40.5822 60.9294 40.5042C60.9282 40.4729 60.9195 40.4498 60.9033 40.4348C60.8499 40.2648 60.8052 40.118 60.7692 39.9943C60.7332 39.8706 60.7119 39.7228 60.7054 39.5511C60.6959 39.3013 60.7023 39.0586 60.7246 38.8233C60.7463 38.5722 60.7524 38.3218 60.7428 38.072C60.7333 37.8222 60.6938 37.6048 60.6242 37.4198C60.6836 37.3394 60.7344 37.2358 60.7765 37.1091C60.8024 36.9674 60.8204 36.826 60.8307 36.6848C60.8409 36.5437 60.8434 36.4029 60.838 36.2624C60.8483 36.1213 60.867 35.9955 60.894 35.885C60.825 35.7156 60.7647 35.5694 60.7131 35.4462C60.6609 35.3075 60.6312 35.1444 60.6241 34.9571L60.6179 34.7931C60.7639 34.5218 60.8862 34.2435 60.9848 33.9582C61.0833 33.673 61.1894 33.3797 61.303 33.0783L61.3004 33.008C61.2831 32.5552 61.2502 32.103 61.2017 31.6514C61.1533 31.1998 61.1204 30.7476 61.1031 30.2948L61.0862 29.8498C61.0802 29.6937 61.0824 29.5451 61.0926 29.404C61.2151 29.3367 61.3056 29.2473 61.3638 29.1356C61.4221 29.0239 61.5125 28.9345 61.6351 28.8673L62.4079 28.8378L62.5395 28.5983C62.5834 28.5184 62.6114 28.4313 62.6234 28.3371C62.7934 28.2837 62.9549 28.215 63.1081 28.131C63.2763 28.0307 63.4288 27.9311 63.5658 27.8321C63.7796 27.6988 63.9706 27.5821 64.1388 27.4818C64.322 27.3654 64.4983 27.2727 64.6677 27.2037C64.852 27.1185 65.0448 27.0486 65.246 26.994C65.4472 26.9394 65.6799 26.8915 65.9442 26.8501C66.0691 26.8454 66.1463 26.819 66.1757 26.7709C66.2208 26.7223 66.2811 26.6653 66.3568 26.5998C66.5454 26.6239 66.7339 26.648 66.9225 26.6721C67.1104 26.6806 67.2981 26.6812 67.4855 26.6741C67.8602 26.6598 68.2088 26.5762 68.5314 26.4231C68.9998 26.4053 69.4601 26.3799 69.9123 26.3471C70.3801 26.3136 70.8482 26.2879 71.3166 26.2701C71.7226 26.2546 72.1291 26.2547 72.5363 26.2705C72.9434 26.2862 73.3436 26.3257 73.7369 26.3889C73.8757 26.3367 74.0309 26.3073 74.2027 26.3008C74.39 26.2936 74.5783 26.3099 74.7675 26.3496C74.9716 26.3731 75.1668 26.3657 75.353 26.3273C75.3751 26.4985 75.4198 26.6453 75.487 26.7678C75.5693 26.8741 75.6134 27.0054 75.6193 27.1615ZM98.9734 28.218C98.9319 28.3604 98.8421 28.4654 98.7039 28.5332C98.5808 28.5848 98.4496 28.6289 98.3102 28.6655C98.1709 28.7021 98.0403 28.7618 97.9183 28.8446C97.8114 28.9112 97.7453 29.0232 97.7201 29.1805L97.6741 29.2057C97.6117 29.2081 97.5642 29.1943 97.5318 29.1643C97.5144 29.118 97.4973 29.0796 97.4805 29.0489C97.4631 29.0027 97.4382 28.9646 97.4058 28.9345C97.3884 28.8883 97.3563 28.866 97.3094 28.8678C97.1377 28.8744 96.9665 28.8965 96.796 28.9343C96.641 28.9715 96.4855 28.9931 96.3293 28.999C96.0951 29.0079 95.8831 28.9847 95.6934 28.9294C95.5853 28.9648 95.5255 29.0375 95.5141 29.1474C95.5182 29.2567 95.4741 29.3287 95.3816 29.3635C95.3047 29.3977 95.2116 29.4169 95.1023 29.4211C94.9924 29.4096 94.8834 29.4216 94.7753 29.457L94.033 29.6729C93.7856 29.7449 93.5369 29.7856 93.2871 29.7951C93.1466 29.8005 93.0448 29.7966 92.9818 29.7833C92.7547 29.9796 92.4946 30.1303 92.2015 30.2353C91.9079 30.3246 91.5986 30.4146 91.2737 30.5052C90.9638 30.5795 90.6548 30.6773 90.3467 30.7985C90.0542 30.9191 89.7953 31.101 89.57 31.3441C89.4439 31.3176 89.334 31.3062 89.2403 31.3098C89.0373 31.3175 88.8596 31.3712 88.707 31.4708C88.5538 31.5548 88.3929 31.6392 88.2241 31.7238C88.1472 31.758 88.0698 31.7766 87.9917 31.7795C87.9136 31.7825 87.8283 31.8014 87.7358 31.8362C87.6434 31.871 87.583 31.928 87.5547 32.0073C87.5415 32.0703 87.497 32.1346 87.4213 32.2C87.4428 32.7621 87.5188 33.3221 87.6496 33.88C87.7797 34.4223 87.8555 34.9745 87.8769 35.5366L87.8805 35.6303C87.9218 35.8946 88.0172 36.1411 88.1667 36.37C88.3155 36.5832 88.3944 36.8069 88.4033 37.0411C88.4063 37.1192 88.394 37.2057 88.3663 37.3005C88.7758 37.3787 89.0493 37.5794 89.1867 37.9025C89.3391 38.2094 89.4615 38.5488 89.5539 38.9205C89.6613 39.2761 89.7911 39.6073 89.9436 39.9142C90.1116 40.2205 90.4157 40.4044 90.8559 40.4658C90.8931 40.6208 90.9227 40.7838 90.9449 40.955C90.9664 41.1105 90.9802 41.2663 90.9862 41.4225C90.9945 41.6411 90.9791 41.8527 90.94 42.0575C90.9015 42.2779 90.8152 42.4766 90.6813 42.6537C90.4477 42.6783 90.2762 42.6926 90.1669 42.6968C90.0576 42.701 89.8955 42.7541 89.6804 42.8561C89.361 42.6806 89.0716 42.4727 88.8123 42.2324C88.5692 42.0072 88.3333 41.766 88.1045 41.5089C87.8909 41.2356 87.6772 40.9622 87.4635 40.6889C87.2492 40.4 87.0199 40.1273 86.7756 39.8708C85.9714 40.1047 85.1414 40.2771 84.2856 40.3879C83.4449 40.4825 82.6029 40.5458 81.7598 40.578C81.7298 40.6104 81.6835 40.6278 81.6211 40.6302C81.5586 40.6326 81.4964 40.6428 81.4346 40.6607C81.3877 40.6625 81.3415 40.6799 81.2958 40.7129C81.2652 40.7297 81.2589 40.7691 81.2769 40.8309C81.1652 40.7726 81.0388 40.7384 80.8977 40.7281C80.7716 40.7017 80.6539 40.6905 80.5446 40.6947C80.4665 40.6976 80.3888 40.7084 80.3113 40.727C80.2332 40.73 80.156 40.7564 80.0798 40.8062C79.4823 40.7195 78.8989 40.5932 78.3297 40.4273C77.7755 40.2451 77.2071 40.1026 76.6247 39.9997C76.6199 39.8748 76.5854 39.7901 76.5212 39.7457C76.4563 39.6856 76.3984 39.6018 76.3474 39.4943C75.6762 39.1133 75.1031 38.6426 74.6283 38.0822C74.1691 37.5211 73.9628 36.8254 74.0093 35.9949L73.8328 35.6732C73.8233 35.4234 73.8711 35.2418 73.9763 35.1283C73.9096 35.0214 73.7962 34.9163 73.6359 34.8129C73.7681 34.589 73.8843 34.3578 73.9847 34.1194C74.0851 33.8811 74.1536 33.6283 74.1903 33.3611C74.203 33.2824 74.2081 33.2118 74.2057 33.1494C74.2034 33.0869 74.2163 33.0161 74.2445 32.9368C74.2722 32.8419 74.3152 32.7387 74.3735 32.627C74.4155 32.5003 74.4582 32.3892 74.5015 32.2938C74.7311 31.7534 74.985 31.2355 75.2632 30.7402C75.5564 30.2286 75.9304 29.7844 76.3851 29.4074C76.4062 29.1408 76.4759 28.9192 76.5943 28.7427C76.7121 28.5506 76.8385 28.3816 76.9737 28.2357C77.1239 28.0736 77.2663 27.9118 77.4008 27.7503C77.551 27.5882 77.661 27.3964 77.7307 27.1748C78.0329 26.8975 78.3353 26.628 78.6381 26.3663C78.9564 26.1039 79.2184 25.7969 79.4239 25.445C79.7014 25.3406 79.9623 25.2134 80.2068 25.0634C80.4506 24.8977 80.654 24.6945 80.8168 24.4538C81.1904 24.4083 81.5546 24.324 81.9095 24.201C82.2801 24.0774 82.6684 24.0079 83.0743 23.9924C83.2461 23.9859 83.4505 24.0172 83.6877 24.0863C83.9399 24.1393 84.1317 24.2492 84.2632 24.4162C84.28 24.4468 84.2893 24.4856 84.2911 24.5324L84.319 24.6486C84.3358 24.6793 84.3526 24.7099 84.3694 24.7405C84.4012 24.755 84.448 24.7532 84.5099 24.7352C84.523 25.0787 84.4974 25.4315 84.433 25.7936C84.368 26.14 84.1751 26.4132 83.8544 26.6131C83.649 26.5584 83.4293 26.5355 83.195 26.5444C82.8828 26.5563 82.5963 26.6298 82.3356 26.7648C82.09 26.8836 81.8452 27.0258 81.6014 27.1915C81.3725 27.3409 81.1361 27.4985 80.8923 27.6642C80.6478 27.8142 80.3863 27.9258 80.1076 27.999C80.0811 28.1251 80.0544 28.2434 80.0273 28.3539C80.0153 28.4481 80.0272 28.5571 80.0632 28.6808C79.9851 28.6838 79.9224 28.6784 79.875 28.6646C79.8425 28.6345 79.7873 28.621 79.7092 28.624C79.5999 28.6281 79.5242 28.6936 79.4822 28.8203C79.4557 28.9464 79.4283 29.049 79.4001 29.1283C79.1082 29.2645 78.8652 29.4536 78.6712 29.6955C78.4921 29.9213 78.3218 30.1701 78.1602 30.4421C78.0136 30.6979 77.851 30.9464 77.6726 31.1878C77.4942 31.4291 77.2668 31.6176 76.9905 31.7532C76.8846 32.2576 76.7785 32.7542 76.672 33.243C76.5812 33.7312 76.4669 34.2203 76.3292 34.7103C76.3832 34.8958 76.4141 35.0901 76.4218 35.2931C76.4313 35.5429 76.4165 35.7702 76.3774 35.975C76.4603 36.0969 76.544 36.2423 76.6286 36.411L76.9302 36.939C77.031 37.1228 77.1312 37.291 77.2309 37.4435C77.3461 37.5955 77.4521 37.7087 77.5487 37.7832C77.7252 37.9016 77.9951 38.0086 78.3584 38.1042C78.7211 38.1842 79.0474 38.3359 79.3374 38.5594C79.3686 38.5582 79.4077 38.5567 79.4545 38.555C79.5007 38.5376 79.5395 38.5283 79.5707 38.5271C79.7581 38.5199 79.9628 38.559 80.185 38.6444C80.4072 38.7297 80.5495 38.7712 80.6119 38.7688C81.4863 38.7355 82.4366 38.6446 83.463 38.496C84.4887 38.3318 85.4355 38.1472 86.3033 37.9421C86.3286 37.7847 86.3391 37.6514 86.335 37.5421C86.3272 37.3392 86.2886 37.1452 86.219 36.9602C86.1488 36.7596 86.0408 36.5917 85.8949 36.4566C85.8859 36.2223 85.877 35.9881 85.8681 35.7539C85.8748 35.5191 85.8737 35.2846 85.8647 35.0504C85.8499 34.6601 85.8185 34.2469 85.7706 33.8109C85.7227 33.3749 85.6291 32.972 85.4899 32.602L85.4431 32.6038C85.2401 32.6115 85.0548 32.6733 84.8873 32.7891C84.7347 32.8888 84.5725 32.9419 84.4008 32.9484C84.3071 32.952 84.2281 32.9315 84.1639 32.8871C83.9849 33.1128 83.7647 33.2854 83.5035 33.4048C83.2422 33.5242 82.965 33.6364 82.6719 33.7414C82.3782 33.8308 82.0849 33.928 81.7918 34.033C81.5143 34.1373 81.2617 34.2799 81.0341 34.4606C80.9074 34.4185 80.7894 34.3995 80.6801 34.4037C80.5708 34.4079 80.4618 34.4198 80.3531 34.4396C80.26 34.4588 80.1513 34.4786 80.027 34.499C79.6884 34.2304 79.5111 33.8853 79.495 33.4638C79.4867 33.2452 79.5098 33.0332 79.5646 32.8279C79.6343 32.6063 79.728 32.3994 79.8458 32.2073C79.9221 32.1575 80.0149 32.1305 80.1242 32.1263C80.2329 32.1066 80.3416 32.0868 80.4503 32.067C80.5584 32.0316 80.6428 31.9893 80.7034 31.9401C80.7797 31.8903 80.8233 31.8026 80.8342 31.6771C80.8828 31.7222 80.9227 31.7441 80.9539 31.7429C80.9852 31.7417 81.0161 31.7327 81.0467 31.7159C81.0774 31.6991 81.1083 31.6901 81.1395 31.6889C81.1707 31.6877 81.1948 31.7024 81.2116 31.7331C81.244 31.7631 81.2608 31.7937 81.262 31.825C81.9197 31.4403 82.5951 31.1096 83.2882 30.833C83.9812 30.5564 84.683 30.3029 85.3935 30.0726C86.1196 29.8416 86.8463 29.6263 87.5736 29.4266C88.3003 29.2112 89.0186 28.9806 89.7285 28.7346C89.8343 28.6368 89.9487 28.562 90.0718 28.5104C90.1949 28.4588 90.3015 28.3844 90.3917 28.2872C90.5033 28.3454 90.6372 28.3716 90.7934 28.3657C91.012 28.3573 91.2447 28.3094 91.4915 28.2218C91.7534 28.118 91.9678 28.0003 92.1348 27.8689C92.1978 27.8821 92.2528 27.8879 92.2996 27.8861L92.4636 27.8798C92.7759 27.8679 93.0629 27.8101 93.3248 27.7063C93.6023 27.6019 93.8707 27.4665 94.1302 27.3003L94.2473 27.2958C94.7313 27.2774 95.2055 27.2046 95.6697 27.0774C96.1496 26.9497 96.6393 26.8763 97.139 26.8572C97.7791 26.8328 98.3475 26.9754 98.844 27.2848L98.8547 27.5658C98.8595 27.6907 98.8639 27.8079 98.8681 27.9171C98.8873 28.0102 98.9224 28.1105 98.9734 28.218ZM97.6351 38.0261C97.5617 38.154 97.4725 38.2747 97.3674 38.3882C97.2617 38.486 97.1641 38.5914 97.0745 38.7042C96.967 38.7552 96.843 38.7834 96.7025 38.7888C96.5776 38.7935 96.4527 38.7983 96.3278 38.8031C96.2179 38.7916 96.1086 38.7958 95.9999 38.8156C95.9062 38.8191 95.8293 38.8533 95.7692 38.9182C95.6431 38.8917 95.5474 38.8406 95.4819 38.7649C95.4159 38.6736 95.3045 38.6232 95.1478 38.6135C95.0848 38.6003 95.0223 38.6026 94.9604 38.6206C94.7161 38.3641 94.4868 38.0914 94.2725 37.8025C94.0739 37.513 93.8836 37.2388 93.7017 36.9799C93.6641 36.4028 93.5949 35.819 93.4942 35.2287C93.4733 35.0888 93.4445 34.9491 93.4079 34.8098C93.3713 34.6705 93.3429 34.5387 93.3225 34.4143C93.3165 34.2582 93.3187 34.1096 93.3289 33.9685C93.3542 33.8111 93.3723 33.6697 93.3831 33.5442C93.4283 33.089 93.4816 32.6414 93.543 32.2012C93.6044 31.7611 93.6577 31.3134 93.7029 30.8582C93.7499 30.4499 93.7651 30.0271 93.7484 29.5899C93.7311 29.1371 93.6448 28.7182 93.4894 28.3333L93.4615 28.217C93.488 28.0909 93.5153 27.9883 93.5436 27.909C93.5869 27.8135 93.6142 27.7109 93.6257 27.601C93.6504 27.428 93.6066 27.3046 93.4943 27.2307C93.5364 27.104 93.6115 27.023 93.7196 26.9876C93.8271 26.9366 93.886 26.8405 93.8962 26.6994C93.9095 26.6363 93.9071 26.5739 93.8891 26.512C94.0122 26.4604 94.1356 26.4166 94.2593 26.3806C94.3981 26.3284 94.5305 26.3156 94.6566 26.342C94.8608 26.3655 95.043 26.429 95.2033 26.5323C95.363 26.62 95.5155 26.7237 95.6608 26.8432C95.9392 27.5832 96.071 28.3756 96.0563 29.2205C96.041 30.0498 95.9948 30.8881 95.9176 31.7354C95.8405 32.5827 95.8018 33.4129 95.8015 34.226C95.8006 35.0235 95.9538 35.7604 96.261 36.4367L96.3087 36.4583C96.3874 36.471 96.449 36.4452 96.4934 36.3809C96.5373 36.3011 96.5986 36.2675 96.6772 36.2801C96.7409 36.3089 96.7805 36.3231 96.7961 36.3225C96.8705 36.6324 96.9833 36.9252 97.1345 37.2009C97.2857 37.4765 97.4526 37.7516 97.6351 38.0261ZM112.259 37.7267C112.269 37.9921 112.208 38.229 112.075 38.4373C111.957 38.6295 111.92 38.8655 111.962 39.1453C111.748 39.2786 111.574 39.4493 111.442 39.6577C111.309 39.866 111.184 40.0819 111.068 40.3052C110.063 41.0159 108.975 41.5968 107.803 42.048C106.648 42.5142 105.446 42.7711 104.197 42.8187C104.119 42.8217 104.048 42.7853 103.982 42.7097C103.917 42.6496 103.852 42.5817 103.787 42.506C103.721 42.4303 103.648 42.3549 103.567 42.2798C103.502 42.2198 103.423 42.1915 103.329 42.1951C103.22 42.1993 103.135 42.2259 103.074 42.2752C103.073 42.2439 103.072 42.2127 103.071 42.1815C103.086 42.1653 103.093 42.1416 103.091 42.1103C103.084 41.923 103.053 41.7287 102.999 41.5275C102.945 41.3419 102.914 41.1554 102.907 40.9681C102.899 40.7495 102.931 40.5684 103.004 40.4249L103.285 40.4142C103.441 40.4083 103.589 40.3948 103.729 40.3739C103.884 40.3367 104.047 40.3148 104.219 40.3083C104.391 40.3017 104.549 40.3426 104.693 40.4309C105.55 40.367 106.356 40.1799 107.111 39.8697C107.88 39.5433 108.657 39.2244 109.443 38.913C109.561 38.7364 109.625 38.5464 109.632 38.3428C109.655 38.123 109.71 37.9177 109.797 37.7268C109.377 37.3987 108.954 37.1491 108.525 36.9778C108.111 36.7903 107.632 36.7382 107.088 36.8214C106.753 36.631 106.397 36.5273 106.021 36.5103C105.661 36.4928 105.292 36.4599 104.915 36.4117C104.821 36.3997 104.718 36.388 104.609 36.3765C104.514 36.3489 104.412 36.3371 104.302 36.3413C104.224 36.3442 104.147 36.3706 104.071 36.4205C104.009 36.4541 103.996 36.5093 104.03 36.5862C103.947 36.4643 103.835 36.3982 103.694 36.3879C103.568 36.3614 103.456 36.3032 103.359 36.213C102.858 36.2009 102.418 36.1316 102.038 36.0054C101.657 35.8636 101.237 35.7076 100.777 35.5375C100.65 35.4954 100.524 35.4689 100.399 35.4581C100.288 35.431 100.177 35.3883 100.065 35.33C99.779 35.2002 99.5454 35.0215 99.3648 34.7938C99.1841 34.5662 99.0415 34.3136 98.9371 34.0361C98.8165 33.7437 98.7269 33.4422 98.6681 33.1317C98.6094 32.8212 98.5515 32.5341 98.4946 32.2705C98.6256 32.0153 98.7485 31.7526 98.8633 31.4824C98.9624 31.2128 99.0454 30.9282 99.1122 30.6286C99.2041 30.5782 99.2963 30.5356 99.3887 30.5008C99.4812 30.466 99.5812 30.4231 99.6888 30.372C99.6719 30.3414 99.6627 30.3027 99.6609 30.2558C99.6579 30.1778 99.6783 30.0988 99.7222 30.019C99.7817 29.9385 99.7943 29.8598 99.7601 29.783C100.092 29.4576 100.407 29.125 100.707 28.7852C101.022 28.4292 101.289 28.0438 101.507 27.6289C101.739 27.5419 101.922 27.4177 102.056 27.2562C102.191 27.0947 102.325 26.9332 102.46 26.7717C102.594 26.5946 102.744 26.4403 102.911 26.3088C103.078 26.1618 103.293 26.0676 103.557 26.0262C103.616 25.9146 103.698 25.8254 103.805 25.7588C103.911 25.6765 104.018 25.6021 104.125 25.5355C104.232 25.4689 104.331 25.3947 104.421 25.3131C104.512 25.2315 104.578 25.1195 104.62 24.9772C104.869 24.9677 105.094 24.9122 105.293 24.8108C105.509 24.7088 105.715 24.5992 105.914 24.4822C106.113 24.3652 106.312 24.2559 106.512 24.1545C106.727 24.0525 106.959 23.9967 107.209 23.9872C107.271 23.9848 107.334 23.9903 107.397 24.0035C107.46 24.0011 107.53 24.0063 107.609 24.0189C107.722 24.124 107.798 24.2541 107.835 24.409C107.887 24.5477 107.924 24.7027 107.946 24.8738C107.968 25.045 107.983 25.2164 107.989 25.3882C108.011 25.5594 108.049 25.7143 108.101 25.853C107.97 26.1238 107.824 26.3952 107.663 26.6672C107.517 26.9386 107.314 27.1496 107.054 27.3002L107.007 27.302C106.898 27.3218 106.796 27.3022 106.7 27.2434C106.604 27.1845 106.493 27.1574 106.368 27.1622C106.29 27.1651 106.229 27.1909 106.184 27.2396L106.071 27.3611C106.041 27.3936 105.995 27.4266 105.934 27.4602C105.888 27.4932 105.818 27.4959 105.723 27.4682C105.508 27.5546 105.427 27.6906 105.481 27.8762C105.185 27.9187 104.939 28.0219 104.742 28.1858C104.544 28.3341 104.363 28.5051 104.199 28.6991C104.033 28.8773 103.868 29.0478 103.702 29.2105C103.536 29.3576 103.336 29.4434 103.102 29.4679C102.855 29.9465 102.542 30.3727 102.166 30.7467C101.805 31.1201 101.508 31.538 101.275 32.0003C101.327 32.1234 101.363 32.2549 101.384 32.3949C101.405 32.5348 101.434 32.6822 101.471 32.8372C101.619 33.0192 101.789 33.1769 101.982 33.3103C102.19 33.4431 102.391 33.5761 102.584 33.7095L102.654 33.7068C102.966 33.6949 103.257 33.7464 103.528 33.8612C103.797 33.9603 104.08 34.0043 104.377 33.993C104.533 33.987 104.665 33.9507 104.772 33.8841C105.181 33.9623 105.582 34.0252 105.975 34.0728C106.383 34.1198 106.791 34.1511 107.198 34.1669C107.402 34.1904 107.606 34.1983 107.809 34.1905C108.027 34.1822 108.231 34.1979 108.42 34.2376C108.594 34.2779 108.768 34.3338 108.943 34.4053C109.117 34.4612 109.291 34.5249 109.466 34.5964C109.831 34.7389 110.173 34.8978 110.493 35.0733C110.828 35.2482 111.125 35.4636 111.385 35.7195C111.645 35.9598 111.851 36.249 112.005 36.5871C112.158 36.9097 112.243 37.2895 112.259 37.7267ZM132.15 24.8425C132.095 25.0479 132.001 25.2391 131.867 25.4162L131.488 25.9232C131.369 26.0841 131.266 26.26 131.179 26.451C131.108 26.6257 131.092 26.8296 131.132 27.0626C131.101 27.0638 131.062 27.0653 131.015 27.0671C130.968 27.0532 130.929 27.0469 130.897 27.0481C130.647 27.0576 130.455 27.1275 130.319 27.2578C130.198 27.3718 130.03 27.4721 129.814 27.5585C129.78 27.466 129.737 27.3816 129.687 27.3053C129.637 27.2134 129.564 27.1536 129.47 27.126C129.098 27.2183 128.725 27.2951 128.352 27.3562C127.979 27.4017 127.606 27.4628 127.234 27.5396C127.063 27.5773 126.893 27.6307 126.724 27.6997C126.554 27.7531 126.376 27.8068 126.19 27.8608C126.098 27.8956 125.997 27.9151 125.888 27.9192C125.778 27.9078 125.669 27.9119 125.56 27.9317C125.186 27.9616 124.781 28.0083 124.346 28.0718C123.91 28.1197 123.524 28.2517 123.188 28.4678C123.031 28.4425 122.866 28.4253 122.693 28.4163C122.521 28.4072 122.349 28.4059 122.177 28.4125C121.803 28.4268 121.39 28.4816 120.94 28.5769C120.506 28.656 120.12 28.8036 119.785 29.0197C119.705 28.9914 119.619 28.9713 119.524 28.9592C119.446 28.9466 119.352 28.9424 119.242 28.9465C119.211 28.9477 119.188 28.9564 119.173 28.9726C119.157 28.9732 119.134 28.9741 119.103 28.9753C119.093 29.1164 119.113 29.2564 119.166 29.3951C119.233 29.5176 119.338 29.6152 119.482 29.688C119.426 29.8621 119.402 30.0506 119.409 30.2536C119.42 30.519 119.445 30.7839 119.487 31.0481C119.544 31.3118 119.577 31.5763 119.587 31.8417C119.599 32.1384 119.568 32.3741 119.497 32.5488C119.671 33.0113 119.768 33.5079 119.788 34.0388C119.795 34.2262 119.787 34.4141 119.763 34.6027C119.754 34.775 119.753 34.9627 119.761 35.1657C119.767 35.3374 119.835 35.4756 119.964 35.5801C120.093 35.669 120.16 35.7994 120.167 35.9711C120.169 36.0336 120.156 36.0966 120.127 36.1603C120.344 36.1051 120.552 36.0346 120.752 35.9488C120.952 35.8474 121.161 35.7925 121.379 35.7842C121.504 35.7794 121.622 35.7984 121.733 35.841C121.86 35.8831 121.972 35.9414 122.068 36.0159C122.056 36.0946 122.043 36.181 122.031 36.2753C122.035 36.369 122.039 36.4627 122.042 36.5564C122.049 36.7281 122.055 36.892 122.061 37.0482C122.082 37.1881 122.103 37.3437 122.126 37.5148C122.009 37.7382 121.868 37.939 121.703 38.1173C121.553 38.295 121.452 38.5177 121.4 38.7856C121.166 38.7945 120.957 38.8572 120.774 38.9736C120.606 39.0738 120.446 39.1894 120.295 39.3202C120.143 39.4355 119.991 39.5507 119.839 39.666C119.686 39.7656 119.516 39.819 119.329 39.8261C119.095 39.8351 118.929 39.8101 118.833 39.7512C118.737 39.6767 118.663 39.6013 118.614 39.525C118.564 39.4487 118.514 39.3803 118.465 39.3196C118.431 39.2583 118.352 39.2379 118.228 39.2583C118.189 39.0565 118.12 38.8715 118.019 38.7033C117.919 38.5195 117.81 38.3438 117.694 38.1763C117.594 38.0081 117.486 37.8402 117.37 37.6726C117.269 37.4888 117.192 37.3041 117.138 37.1186C117.029 36.7162 116.974 36.2961 116.973 35.8583C116.972 35.4205 116.885 35.0016 116.714 34.6016C116.737 34.3819 116.752 34.1624 116.759 33.9432C116.766 33.7084 116.765 33.4817 116.757 33.2631C116.74 32.8259 116.708 32.3971 116.661 31.9768C116.628 31.5402 116.596 31.0958 116.563 30.6436C116.448 30.5072 116.372 30.3538 116.334 30.1832C116.312 29.9964 116.289 29.8175 116.267 29.6463C116.218 29.6013 116.162 29.5565 116.098 29.512C116.049 29.467 116.015 29.4057 115.997 29.3282C115.871 29.3018 115.776 29.2897 115.714 29.2921C115.495 29.3004 115.31 29.3622 115.158 29.4775C115.021 29.5765 114.89 29.6284 114.765 29.6332C114.64 29.6379 114.523 29.6268 114.412 29.5997C114.302 29.5727 114.192 29.5612 114.083 29.5654C113.989 29.569 113.935 29.5945 113.921 29.6419C113.922 29.6731 113.892 29.7055 113.831 29.7392C113.786 29.7722 113.677 29.8076 113.507 29.8453C113.336 29.8831 113.142 29.9218 112.925 29.9613C112.723 29.9847 112.52 30.008 112.318 30.0314C112.131 30.0541 112.006 30.0667 111.944 30.0691C111.694 30.0786 111.505 30.0389 111.376 29.95C111.232 29.8461 111.063 29.7352 110.871 29.6174C110.899 29.5226 110.912 29.4595 110.911 29.4283C110.905 29.2721 110.853 29.149 110.756 29.0589C110.658 28.9532 110.608 28.8613 110.605 28.7832C110.598 28.6115 110.664 28.4761 110.801 28.377C110.922 28.2786 110.986 28.1276 110.994 27.924C111.347 27.7542 111.71 27.6231 112.082 27.5308C112.453 27.4384 112.834 27.3614 113.222 27.2996C113.611 27.2379 113.991 27.1687 114.364 27.092C114.751 27.0146 115.13 26.8986 115.5 26.7437C115.609 26.7552 115.711 26.7669 115.806 26.779C115.915 26.7748 116.024 26.7706 116.134 26.7665C116.602 26.7486 117.061 26.6842 117.51 26.5733C117.974 26.4461 118.448 26.3733 118.933 26.3549C119.057 26.3501 119.183 26.3532 119.308 26.364C119.434 26.3749 119.559 26.3935 119.686 26.42C120.307 26.3025 120.919 26.1775 121.524 26.045C122.145 25.9119 122.781 25.7938 123.434 25.6908C123.745 25.6476 124.049 25.6126 124.345 25.5857C124.656 25.5426 124.967 25.4916 125.277 25.4329C125.386 25.4131 125.463 25.3867 125.509 25.3537C125.569 25.3045 125.597 25.2174 125.592 25.0925C125.735 25.1496 125.893 25.1749 126.064 25.1683C126.33 25.1582 126.586 25.1015 126.832 24.9983C127.078 24.8951 127.334 24.8385 127.599 24.8284C127.662 24.826 127.717 24.8317 127.764 24.8455C127.811 24.8437 127.858 24.842 127.905 24.8402C128.014 24.836 128.067 24.7871 128.063 24.6934C128.075 24.5835 128.15 24.5103 128.29 24.4737C128.398 24.4383 128.553 24.4089 128.755 24.3856C128.958 24.3622 129.168 24.3386 129.386 24.3146C129.619 24.2745 129.828 24.2352 130.015 24.1968C130.216 24.1423 130.362 24.0741 130.452 23.9925L130.607 23.7286C130.888 23.7335 131.096 23.8507 131.23 24.0802C131.379 24.2934 131.466 24.5324 131.492 24.7973C131.557 24.8573 131.644 24.8853 131.753 24.8811C131.877 24.8607 131.986 24.8488 132.08 24.8452L132.15 24.8425ZM159.245 34.8099C159.222 35.0453 159.143 35.2281 159.008 35.3584C158.888 35.4881 158.744 35.6108 158.576 35.7267C158.497 35.714 158.419 35.7092 158.341 35.7122C158.278 35.699 158.207 35.6938 158.129 35.6968C157.645 35.6996 157.186 35.7796 156.755 35.9368C156.338 36.0934 155.905 36.2116 155.455 36.2913C155.3 36.3285 155.152 36.3497 155.011 36.3551C154.886 36.3442 154.754 36.3571 154.614 36.3937C154.118 36.4908 153.589 36.5735 153.029 36.6418C152.468 36.71 151.909 36.7939 151.35 36.8934C150.79 36.9773 150.239 37.0843 149.697 37.2144C149.169 37.3283 148.675 37.4879 148.214 37.6931C148.166 37.6637 148.118 37.6342 148.07 37.6048C148.021 37.5597 147.966 37.5384 147.903 37.5408C147.747 37.5467 147.599 37.5758 147.461 37.628C147.322 37.6802 147.182 37.7012 147.041 37.6909C146.888 37.7905 146.719 37.8674 146.534 37.9213C146.363 37.9591 146.185 37.9972 145.999 38.0356C145.827 38.0577 145.657 38.0955 145.487 38.1489C145.317 38.2023 145.156 38.2944 145.005 38.4252C144.878 38.3676 144.72 38.3423 144.533 38.3494C144.361 38.3404 144.241 38.2824 144.175 38.1754C143.822 38.3609 143.444 38.4848 143.039 38.5471C142.651 38.6088 142.253 38.6396 141.847 38.6394C141.581 38.6339 141.275 38.6065 140.929 38.5572C140.583 38.5078 140.236 38.435 139.889 38.3388C139.54 38.227 139.215 38.0987 138.912 37.9538C138.609 37.7934 138.375 37.5991 138.21 37.3708C138.095 37.2188 138.01 37.0501 137.956 36.8645C137.902 36.6789 137.787 36.5425 137.612 36.4554C137.645 36.0945 137.686 35.7411 137.736 35.3952C137.785 35.0494 137.834 34.6957 137.883 34.3342C138.185 34.0568 138.471 33.7645 138.741 33.4571C139.011 33.1497 139.264 32.8273 139.501 32.4899C139.793 32.3381 140.059 32.1559 140.302 31.9434C140.559 31.7303 140.809 31.5176 141.051 31.3051C141.308 31.0763 141.558 30.8557 141.8 30.6432C142.058 30.4301 142.332 30.2399 142.623 30.0724C142.665 29.9613 142.724 29.8731 142.8 29.8077C142.891 29.726 142.982 29.6522 143.073 29.5862C143.164 29.5045 143.247 29.4232 143.322 29.3421C143.396 29.2455 143.447 29.1341 143.473 29.008C144.007 28.6593 144.468 28.2274 144.855 27.7123C145.242 27.1971 145.486 26.6249 145.587 25.9956C145.313 25.7872 145.003 25.6582 144.657 25.6089C144.326 25.5433 143.981 25.5018 143.62 25.4842C143.308 25.4805 142.98 25.493 142.637 25.5217C142.309 25.5498 141.973 25.5548 141.629 25.5367C141.289 25.6591 140.933 25.743 140.559 25.7885C140.202 25.8334 139.844 25.8784 139.486 25.9233C139.127 25.9526 138.77 26.0131 138.414 26.1049C138.073 26.1804 137.742 26.3181 137.421 26.518C137.358 26.5204 137.296 26.5149 137.233 26.5017C137.185 26.4879 137.13 26.4821 137.068 26.4845C136.568 26.488 136.103 26.6073 135.674 26.8426C135.245 27.0622 134.823 27.2815 134.409 27.5006C134.38 27.5642 134.367 27.6117 134.368 27.6429C134.371 27.7366 134.391 27.8297 134.425 27.9222C134.475 27.9984 134.502 28.0834 134.505 28.1771C134.49 28.1933 134.483 28.2092 134.484 28.2248C134.484 28.2405 134.477 28.2564 134.462 28.2726C134.45 28.3512 134.429 28.4224 134.4 28.486C134.387 28.5491 134.366 28.6202 134.338 28.6995C134.185 29.2057 134.11 29.7011 134.113 30.1857C134.113 30.5923 134.128 30.9904 134.158 31.3801C134.189 31.7699 134.204 32.168 134.204 32.5746C134.192 33.0754 134.132 33.5468 134.023 33.9888C134.116 34.3605 134.201 34.756 134.28 35.1752C134.358 35.5787 134.451 35.9817 134.56 36.3841C134.669 36.7865 134.794 37.1805 134.934 37.566C135.088 37.9354 135.282 38.2877 135.513 38.6229C135.499 38.6547 135.508 38.6778 135.539 38.6922C135.571 38.7066 135.603 38.7133 135.634 38.7121L135.821 38.7049C135.9 38.702 135.932 38.732 135.919 38.795C135.952 38.8407 135.977 38.8866 135.994 38.9329C136.011 38.9635 136.044 38.9936 136.092 39.023C136.125 39.0687 136.127 39.1311 136.099 39.2104C136.095 39.5232 136.028 39.8151 135.898 40.0858C135.767 40.3566 135.692 40.6488 135.673 40.9622C135.487 41.0162 135.316 41.0462 135.16 41.0521C134.894 41.0466 134.657 40.9775 134.449 40.8447C134.241 40.7275 134.048 40.5785 133.869 40.3977C133.69 40.2169 133.519 40.0358 133.356 39.8544C133.192 39.6574 133.013 39.4921 132.821 39.3588C132.695 38.9258 132.567 38.4459 132.437 37.9192C132.324 37.3919 132.142 36.9454 131.894 36.5796C131.951 36.4366 131.976 36.2637 131.968 36.0607C131.972 35.7479 131.929 35.4446 131.839 35.1509C131.765 34.841 131.738 34.5293 131.757 34.2159C131.75 34.0441 131.759 33.8718 131.784 33.6988C131.824 33.5253 131.849 33.3524 131.858 33.18C131.864 32.914 131.823 32.6575 131.735 32.4107C131.663 32.1633 131.63 31.9065 131.635 31.6405C131.646 31.515 131.665 31.397 131.692 31.2865C131.734 31.1598 131.792 31.0482 131.867 30.9515C131.782 30.7671 131.752 30.5884 131.776 30.4155C131.782 30.1495 131.803 29.8985 131.841 29.6625C131.879 29.4265 131.902 29.1911 131.908 28.9563C131.903 28.8314 131.891 28.7146 131.871 28.6059C131.851 28.4816 131.823 28.3653 131.788 28.2572L131.574 28.195C131.481 28.1986 131.388 28.2256 131.296 28.276C131.22 28.3258 131.151 28.3831 131.091 28.448C131.031 28.5128 130.979 28.5695 130.934 28.6182C130.888 28.6512 130.842 28.6686 130.795 28.6704C130.764 28.6715 130.725 28.673 130.678 28.6748C130.646 28.6604 130.614 28.6538 130.583 28.655C130.552 28.6562 130.491 28.6898 130.399 28.7558C130.324 28.8212 130.225 28.8954 130.103 28.9782C129.996 29.0448 129.89 29.1192 129.783 29.2015C129.676 29.2681 129.592 29.3104 129.53 29.3284C129.357 29.3037 129.214 29.2544 129.102 29.1805C129.005 29.0904 128.908 29.0081 128.811 28.9336C128.73 28.8429 128.641 28.7681 128.545 28.7092C128.448 28.6347 128.33 28.608 128.19 28.6289C128.14 28.537 128.112 28.4364 128.108 28.3271C128.088 28.2184 128.084 28.1091 128.096 27.9993L128.081 27.6245C128.183 27.4174 128.325 27.2478 128.508 27.1157C128.674 26.9687 128.857 26.8444 129.056 26.743L129.654 26.4387C129.854 26.3373 130.037 26.2131 130.203 26.066L130.414 26.058C130.696 26.0629 130.935 25.999 131.134 25.8664C131.348 25.7331 131.545 25.5849 131.727 25.4216C131.907 25.2427 132.088 25.0638 132.269 24.8849C132.465 24.7054 132.679 24.5644 132.91 24.4618C133.084 24.5333 133.267 24.5967 133.456 24.652C133.645 24.6917 133.842 24.7155 134.045 24.7234C134.248 24.7156 134.458 24.6764 134.674 24.6056C134.89 24.5348 135.058 24.4112 135.176 24.2346C135.255 24.2629 135.319 24.2839 135.366 24.2978C135.429 24.2954 135.499 24.2927 135.577 24.2897C135.812 24.2964 136.045 24.2563 136.276 24.1693C136.507 24.0667 136.729 23.9487 136.943 23.8155C137.255 23.8192 137.559 23.792 137.854 23.7338C138.164 23.6595 138.466 23.5854 138.76 23.5116C139.07 23.4373 139.373 23.371 139.668 23.3129C139.978 23.2385 140.289 23.2032 140.602 23.2069C141.118 23.2029 141.623 23.1367 142.119 23.0084C142.614 22.88 143.12 22.8216 143.637 22.8332C143.996 22.8352 144.349 22.853 144.694 22.8867C145.054 22.9043 145.414 22.8984 145.772 22.8691C145.979 22.955 146.162 23.0341 146.321 23.1062C146.495 23.1621 146.706 23.1697 146.955 23.1289C147.471 23.5315 147.942 24.006 148.37 24.5526L148.385 24.9508C148.383 25.3105 148.334 25.6642 148.238 26.0119C148.141 26.3595 148.022 26.7081 147.879 27.0575C147.751 27.3908 147.607 27.7246 147.448 28.059C147.288 28.3779 147.136 28.6964 146.992 29.0146C146.012 29.9745 145.032 30.9266 144.051 31.8709C143.071 32.8151 142.058 33.7294 141.013 34.6136C140.988 34.7709 140.946 34.9132 140.889 35.0405C140.847 35.1672 140.82 35.3011 140.81 35.4422C140.813 35.5203 140.823 35.5825 140.841 35.6287C140.951 35.6558 141.047 35.7147 141.129 35.8054C141.226 35.8799 141.261 35.988 141.235 36.1297L141.446 36.1216C141.524 36.1187 141.564 36.1484 141.567 36.2109L141.942 36.22C142.537 36.2286 143.129 36.1904 143.72 36.1053C144.311 36.0202 144.902 35.9274 145.492 35.8267C146.098 35.7254 146.697 35.6322 147.288 35.5471C147.878 35.4465 148.469 35.377 149.062 35.3388C149.201 35.2866 149.348 35.2419 149.503 35.2047C149.658 35.1675 149.796 35.0997 149.917 35.0013L149.987 34.9986C150.097 34.9944 150.176 35.0227 150.225 35.0834C150.29 35.1434 150.377 35.1792 150.487 35.1906C150.565 35.1877 150.643 35.1691 150.72 35.1349C150.812 35.1001 150.905 35.0731 150.998 35.0539C151.214 34.9831 151.439 34.9354 151.673 34.9109C151.922 34.8858 152.163 34.8531 152.396 34.813C153.299 34.7004 154.195 34.6193 155.084 34.5698C155.973 34.5046 156.858 34.3536 157.741 34.1167C157.823 34.223 157.935 34.2969 158.078 34.3384C158.219 34.3643 158.369 34.3977 158.527 34.4386C158.684 34.4638 158.826 34.4975 158.953 34.5396C159.095 34.5811 159.193 34.6712 159.245 34.8099ZM167.057 25.0131C166.969 25.1572 166.92 25.3154 166.911 25.4877C166.902 25.6601 166.9 25.8165 166.905 25.957C166.912 26.1444 166.92 26.3317 166.927 26.5191C166.949 26.6903 166.963 26.8617 166.97 27.0335L166.983 27.3848C166.956 27.4953 166.913 27.6063 166.855 27.718C166.797 27.8297 166.754 27.9408 166.727 28.0513C166.531 28.6373 166.443 29.2192 166.465 29.7969L166.467 29.8437C166.396 30.0341 166.325 30.2088 166.253 30.3679C166.196 30.5264 166.14 30.6849 166.083 30.8434C166.026 30.9864 165.985 31.1443 165.96 31.3172C165.935 31.4745 165.934 31.6622 165.958 31.8802C165.761 32.435 165.491 32.9457 165.149 33.4121C164.806 33.863 164.472 34.3292 164.147 34.8107C163.824 34.9481 163.525 35.1237 163.252 35.3373C162.994 35.5504 162.745 35.7867 162.505 36.046C162.027 36.2206 161.558 36.4183 161.097 36.6391C160.636 36.86 160.225 37.1493 159.864 37.5071C159.568 37.5496 159.273 37.6077 158.979 37.6815C158.685 37.7553 158.399 37.86 158.123 37.9956L157.842 38.0063C157.702 38.0116 157.599 37.9843 157.534 37.9242C157.335 38.0412 157.127 38.1274 156.911 38.1825C156.693 38.2221 156.475 38.246 156.257 38.2544C155.976 38.2651 155.694 38.2602 155.412 38.2397C155.144 38.2029 154.869 38.1665 154.587 38.1304C154.422 37.9177 154.197 37.7621 153.912 37.6635C153.626 37.5494 153.372 37.4418 153.149 37.3408C152.673 36.7335 152.322 36.1449 152.097 35.5749C151.871 34.9893 151.635 34.3338 151.389 33.6083C151.411 33.3885 151.458 33.1756 151.528 32.9697C151.598 32.7481 151.62 32.5127 151.595 32.2635C151.845 31.4409 152.184 30.693 152.612 30.02C153.055 29.3308 153.561 28.6704 154.132 28.0388C154.128 27.9451 154.141 27.8665 154.169 27.8028C154.214 27.7386 154.218 27.6446 154.182 27.5209C154.198 27.5359 154.23 27.5425 154.277 27.5407C154.402 27.536 154.479 27.5018 154.507 27.4381C154.536 27.3589 154.54 27.2727 154.521 27.1796C155.069 26.7991 155.561 26.366 155.996 25.8803C156.447 25.394 156.963 24.9835 157.544 24.6486C157.585 24.5063 157.659 24.3862 157.765 24.2883C157.871 24.1905 157.952 24.0779 158.01 23.9506C158.504 23.7911 158.949 23.563 159.344 23.2665C159.739 22.97 160.159 22.7038 160.604 22.4679C160.848 22.3179 161.079 22.2153 161.296 22.1601C161.527 22.0887 161.775 22.0168 162.038 21.9442C162.13 21.9094 162.215 21.8827 162.293 21.8641C162.37 21.8455 162.456 21.8344 162.55 21.8309C162.831 21.8202 163.106 21.8644 163.376 21.9636C163.645 22.0471 163.92 22.0836 164.201 22.0728C164.279 22.0699 164.341 22.0675 164.388 22.0657C164.45 22.0477 164.512 22.0297 164.574 22.0117C164.852 22.3295 165.197 22.5665 165.609 22.7228C165.712 22.9534 165.829 23.1522 165.96 23.3192C166.107 23.4856 166.255 23.652 166.402 23.8184C166.548 23.9692 166.68 24.144 166.797 24.3428C166.929 24.5254 167.016 24.7488 167.057 25.0131ZM164.761 26.3202C164.758 26.2421 164.748 26.1722 164.73 26.1103C164.572 26.0694 164.421 26.0126 164.278 25.9399C164.134 25.8672 163.977 25.8341 163.805 25.8407C163.696 25.8448 163.587 25.8724 163.48 25.9234C163.46 25.8147 163.41 25.7384 163.33 25.6946C163.266 25.6501 163.186 25.614 163.092 25.5864C163.012 25.5425 162.925 25.5146 162.83 25.5025C162.751 25.4743 162.679 25.4301 162.614 25.37C162.563 25.2469 162.503 25.1241 162.436 25.0016C162.384 24.8628 162.286 24.7649 162.143 24.7078C162.008 24.8537 161.849 24.977 161.665 25.0779C161.48 25.1631 161.288 25.2486 161.088 25.3344C160.904 25.4196 160.72 25.5204 160.537 25.6369C160.369 25.7527 160.226 25.8911 160.107 26.052L159.686 26.068C159.598 26.2434 159.471 26.3811 159.303 26.4814C159.134 26.566 158.99 26.6887 158.871 26.8496C158.626 26.9841 158.398 27.1491 158.186 27.3448C157.99 27.5243 157.794 27.7194 157.599 27.9301C157.403 28.1252 157.207 28.3281 157.012 28.5388C156.832 28.749 156.637 28.9441 156.425 29.1242C156.238 29.5691 156.026 29.9602 155.789 30.2976C155.567 30.6188 155.353 30.9476 155.147 31.2838C154.956 31.6194 154.79 31.9854 154.649 32.3816C154.523 32.7617 154.47 33.2328 154.492 33.7949L154.501 34.0291C154.504 34.1072 154.514 34.185 154.533 34.2624C154.744 34.4733 154.917 34.7012 155.052 34.9463C155.202 35.1908 155.435 35.3617 155.751 35.4591C156.068 35.5721 156.398 35.6142 156.741 35.5855C157.1 35.5562 157.445 35.5822 157.776 35.6634C158.52 35.4943 159.23 35.2405 159.905 34.902C160.595 34.5474 161.244 34.1317 161.851 33.6551C161.942 33.5735 162.048 33.4912 162.17 33.4084C162.291 33.31 162.389 33.2124 162.464 33.1158C162.539 33.0347 162.598 32.9465 162.641 32.851C162.7 32.7549 162.759 32.6667 162.819 32.5862C162.936 32.3785 163.069 32.1702 163.217 31.9612C163.366 31.7523 163.522 31.5587 163.688 31.3804C163.753 31.0339 163.842 30.7022 163.955 30.3851C164.067 30.0525 164.18 29.7276 164.293 29.4106C164.406 29.0936 164.495 28.7696 164.561 28.4388C164.642 28.1073 164.676 27.762 164.662 27.4029C164.659 27.3248 164.648 27.2392 164.629 27.1462C164.625 27.0525 164.614 26.9669 164.595 26.8894C164.714 26.7129 164.769 26.5232 164.761 26.3202ZM181.467 35.0887C181.477 35.3541 181.416 35.591 181.283 35.7993C181.165 35.9915 181.127 36.2275 181.169 36.5073C180.955 36.6406 180.782 36.8113 180.649 37.0197C180.516 37.228 180.392 37.4439 180.275 37.6672C179.27 38.3779 178.182 38.9588 177.011 39.41C175.856 39.8762 174.654 40.1331 173.405 40.1807C173.327 40.1837 173.255 40.1473 173.19 40.0716C173.125 40.0116 173.06 39.9437 172.994 39.868C172.929 39.7923 172.856 39.7169 172.775 39.6418C172.71 39.5818 172.63 39.5535 172.537 39.5571C172.427 39.5612 172.343 39.5879 172.282 39.6372C172.281 39.6059 172.279 39.5747 172.278 39.5435C172.293 39.5273 172.3 39.5035 172.299 39.4723C172.292 39.285 172.261 39.0907 172.206 38.8895C172.152 38.7039 172.122 38.5174 172.115 38.3301C172.106 38.1115 172.139 37.9304 172.211 37.7869L172.492 37.7762C172.648 37.7703 172.797 37.7568 172.936 37.7358C173.091 37.6987 173.255 37.6768 173.427 37.6703C173.598 37.6637 173.756 37.7046 173.9 37.7929C174.758 37.729 175.564 37.5419 176.318 37.2317C177.088 36.9053 177.865 36.5863 178.651 36.2749C178.769 36.0984 178.832 35.9084 178.84 35.7048C178.863 35.485 178.918 35.2797 179.004 35.0887C178.585 34.7607 178.161 34.5111 177.732 34.3398C177.319 34.1523 176.84 34.1001 176.296 34.1834C175.96 33.993 175.604 33.8892 175.228 33.8723C174.868 33.8548 174.499 33.8219 174.122 33.7737C174.028 33.7617 173.926 33.7499 173.816 33.7385C173.721 33.7108 173.619 33.6991 173.51 33.7033C173.432 33.7062 173.355 33.7326 173.278 33.7825C173.217 33.8161 173.204 33.8713 173.238 33.9482C173.155 33.8262 173.043 33.7602 172.902 33.7499C172.776 33.7234 172.664 33.6651 172.567 33.575C172.066 33.5628 171.625 33.4936 171.245 33.3674C170.865 33.2255 170.444 33.0696 169.984 32.8995C169.858 32.8574 169.732 32.8309 169.606 32.8201C169.496 32.793 169.385 32.7503 169.273 32.692C168.987 32.5622 168.753 32.3835 168.572 32.1558C168.392 31.9282 168.249 31.6756 168.145 31.3981C168.024 31.1056 167.934 30.8042 167.876 30.4937C167.817 30.1832 167.759 29.8961 167.702 29.6325C167.833 29.3773 167.956 29.1146 168.071 28.8444C168.17 28.5748 168.253 28.2902 168.32 27.9906C168.412 27.9401 168.504 27.8975 168.596 27.8627C168.689 27.8279 168.789 27.785 168.896 27.734C168.88 27.7034 168.87 27.6647 168.868 27.6178C168.865 27.5398 168.886 27.4608 168.93 27.3809C168.989 27.3005 169.002 27.2218 168.968 27.145C169.299 26.8196 169.615 26.487 169.915 26.1472C170.23 25.7912 170.496 25.4058 170.715 24.9909C170.946 24.9039 171.129 24.7797 171.264 24.6182C171.398 24.4567 171.533 24.2952 171.667 24.1337C171.801 23.9566 171.952 23.8023 172.119 23.6708C172.285 23.5238 172.501 23.4296 172.765 23.3882C172.823 23.2765 172.906 23.1874 173.013 23.1208C173.119 23.0385 173.226 22.9641 173.332 22.8975C173.439 22.8309 173.538 22.7567 173.629 22.6751C173.72 22.5935 173.786 22.4815 173.827 22.3392C174.077 22.3297 174.302 22.2742 174.501 22.1728C174.716 22.0708 174.923 21.9612 175.122 21.8442C175.321 21.7272 175.52 21.6179 175.719 21.5165C175.934 21.4145 176.167 21.3587 176.416 21.3492C176.479 21.3468 176.542 21.3523 176.605 21.3655C176.667 21.3631 176.738 21.3682 176.816 21.3809C176.93 21.486 177.005 21.616 177.042 21.771C177.094 21.9097 177.132 22.0647 177.154 22.2358C177.176 22.407 177.19 22.5784 177.197 22.7502C177.219 22.9213 177.256 23.0763 177.308 23.215C177.178 23.4858 177.032 23.7572 176.87 24.0292C176.724 24.3006 176.521 24.5116 176.261 24.6622L176.214 24.664C176.106 24.6838 176.003 24.6642 175.907 24.6053C175.811 24.5465 175.701 24.5194 175.576 24.5242C175.498 24.5271 175.436 24.5529 175.391 24.6016L175.278 24.7231C175.248 24.7555 175.203 24.7886 175.141 24.8222C175.096 24.8552 175.026 24.8579 174.931 24.8302C174.715 24.9166 174.634 25.0526 174.688 25.2382C174.393 25.2807 174.147 25.3839 173.95 25.5478C173.752 25.696 173.571 25.8671 173.406 26.061C173.241 26.2393 173.075 26.4098 172.91 26.5725C172.743 26.7196 172.543 26.8054 172.31 26.8299C172.062 27.3085 171.75 27.7347 171.373 28.1087C171.012 28.4821 170.715 28.9 170.483 29.3623C170.535 29.4854 170.571 29.6169 170.592 29.7569C170.613 29.8968 170.642 30.0442 170.679 30.1992C170.827 30.3812 170.997 30.5389 171.19 30.6723C171.398 30.805 171.598 30.9381 171.791 31.0715L171.861 31.0688C172.174 31.0569 172.465 31.1084 172.735 31.2232C173.005 31.3223 173.288 31.3663 173.585 31.355C173.741 31.349 173.872 31.3127 173.979 31.2461C174.389 31.3243 174.79 31.3872 175.182 31.4348C175.591 31.4818 175.999 31.5131 176.406 31.5289C176.61 31.5524 176.813 31.5603 177.016 31.5525C177.235 31.5442 177.439 31.5599 177.628 31.5996C177.802 31.6399 177.976 31.6958 178.15 31.7673C178.325 31.8232 178.499 31.8869 178.674 31.9584C179.039 32.1009 179.381 32.2598 179.7 32.4353C180.035 32.6102 180.333 32.8255 180.593 33.0815C180.852 33.3218 181.059 33.611 181.212 33.9491C181.365 34.2717 181.45 34.6515 181.467 35.0887Z" fill="#363F5F"/>
</svg>
